# xmcd CD database file
#
# Track frame offsets:
#	150
#	25873
#	47560
#	70158
#	86785
#	106505
#	129608
#	145888
#	163730
#	182560
#	205395
#	225453
#
# Disc length: 3182 seconds
#
# Revision: 0
# Processed by: cddbd v1.5PL3 Copyright (c) Steve Scherf et al.
# Submitted via: CDex 1.51
#
DISCID=9d0c6c0c
DTITLE=Ernie Johnson - It's Party Time
DYEAR=1993
DGENRE=Blues
TTITLE0=It's Party Time
TTITLE1=Honey, I Love You
TTITLE2=That Thang
TTITLE3=Congratulations
TTITLE4=Broke Man Can't Win
TTITLE5=Dreams to Remember
TTITLE6=Hard Times
TTITLE7=Am I Losing You?
TTITLE8=Crying Out the Blues
TTITLE9=Final Notice
TTITLE10=I'm Doing Alright
TTITLE11=Jesus is a Way Marker
EXTD=YEAR: 1993
EXTT0=
EXTT1=
EXTT2=
EXTT3=
EXTT4=
EXTT5=
EXTT6=
EXTT7=
EXTT8=
EXTT9=
EXTT10=
EXTT11=
PLAYORDER=
